<?xml version="1.0" encoding="utf-8"?>
<!-- Generator: Adobe Illustrator 25.4.1, SVG Export Plug-In . SVG Version: 6.00 Build 0)  -->
<svg version="1.1" id="Layer_1" xmlns="http://www.w3.org/2000/svg" xmlns:xlink="http://www.w3.org/1999/xlink" x="0px" y="0px"
	 viewBox="0 0 1920 1080" style="enable-background:new 0 0 1920 1080;" xml:space="preserve">
<style type="text/css">
	.st0{fill:#E8444F;}
	.st1{fill:#FAAF40;}
	.st2{fill:#FFFFFF;}
</style>
<g>
	<circle class="st0" cx="960" cy="540" r="396.8"/>
	<g>
		<g>
			<path class="st1" d="M1118.1,610.8c-49.8,0-90.1,40.3-90.1,90.1s40.3,90.1,90.1,90.1c49.8,0,90.1-40.3,90.1-90.1
				S1167.9,610.8,1118.1,610.8z M1161.6,758l-43.5-31.6l-43.5,31.6l16.6-51.1l-43.5-31.6h53.7l16.6-51.1l16.6,51.1h53.7l-43.5,31.6
				L1161.6,758z"/>
		</g>
	</g>
	<g>
		<path class="st2" d="M1101.5,565.9V232.6c-23.2-10.7-47.7-19.2-73.5-24.4v307.9L1101.5,565.9z"/>
		<path class="st2" d="M1134.8,250.3v315.6l73.5-49.8V310.2C1186.7,286.9,1162,266.8,1134.8,250.3z"/>
	</g>
	<g>
		<path class="st2" d="M747.7,276.4v527.2c22.3,18,47,33.1,73.5,45V231.4C794.7,243.3,770,258.4,747.7,276.4z"/>
		<path class="st2" d="M854.4,218.4v643.3c23.5,7.7,48,13,73.5,15.4V203C902.4,205.4,877.9,210.7,854.4,218.4z"/>
	</g>
</g>
</svg>
