<?xml version="1.0" encoding="utf-8"?>
<!-- Generator: Adobe Illustrator 25.4.1, SVG Export Plug-In . SVG Version: 6.00 Build 0)  -->
<svg version="1.1" id="Layer_1" xmlns="http://www.w3.org/2000/svg" xmlns:xlink="http://www.w3.org/1999/xlink" x="0px" y="0px"
	 viewBox="0 0 1920 1080" style="enable-background:new 0 0 1920 1080;" xml:space="preserve">
<style type="text/css">
	.st0{fill:#E8444F;}
</style>
<g>
	<g>
		<path class="st0" d="M960,880.6c-187.8,0-340.6-152.8-340.6-340.6S772.2,199.4,960,199.4s340.6,152.8,340.6,340.6
			S1147.8,880.6,960,880.6z M960,212.3c-180.7,0-327.7,147-327.7,327.7s147,327.7,327.7,327.7s327.7-147,327.7-327.7
			S1140.7,212.3,960,212.3z"/>
	</g>
	<path class="st0" d="M960,329.3c-116.2,0-210.7,94.5-210.7,210.7c0,62,27.1,120.5,74.4,160.7c1.4,1.2,2.8,2.3,4.2,3.4V687
		c-41.8-37.5-65.6-90.8-65.6-147c0-109,88.7-197.7,197.7-197.7S1157.7,431,1157.7,540S1069,737.7,960,737.7c-2.2,0-4.4,0-6.6-0.1
		c-0.1,0-0.1,0-0.2,0v13c2.3,0.1,4.5,0.1,6.8,0.1c116.2,0,210.7-94.5,210.7-210.7S1076.2,329.3,960,329.3z"/>
	<g>
		<path class="st0" d="M718.6,697.5l-10.7-18.6c-5-8.8-3.6-16.6,3.4-20.6c7.5-4.3,14.9-1.5,19.9,7.3l6.2,10.8l13.8-7.9l4.5,7.8
			L718.6,697.5z M731.2,679.9l-5.7-10c-2.4-4.2-5.4-6.2-9.6-3.8c-3.4,1.9-4.2,5.3-1.4,10.1l5.8,10L731.2,679.9z"/>
		<path class="st0" d="M716.5,637.5l16.1-5.8l3,8.4l-40.2,14.6l-7.6-21c-3.2-8.9-0.9-15.9,6.1-18.4c5.1-1.8,9.3-0.2,12.1,3.7
			c0-2.2,0.2-6.9,7.4-9.5l1.9-0.7c2.9-1,6.1-2.2,7.7-3.4l3.1,8.7c-1.5,1.3-4.1,2.3-8.1,3.7l-1.3,0.5c-4.7,1.7-5.8,4.1-3.5,10.3
			L716.5,637.5z M710.1,639.8l-3.9-10.7c-1.9-5.2-4.6-6.9-8.5-5.5c-3.6,1.3-4.6,4.4-2.8,9.5l3.9,10.8L710.1,639.8z"/>
		<path class="st0" d="M709.1,590.7l11.3,2.6l1.5,9.1l-45-10.6l-1.8-11.2l39.3-24.9l1.5,9.6l-9.9,6.2L709.1,590.7z M699.2,575.1
			c-9.6,6-14.4,8.9-17.4,10.4l0,0.1c3.2,0.4,10.2,1.8,19.6,3.9L699.2,575.1z"/>
		<path class="st0" d="M715.1,545.7l-15.6,0.3c-0.5,0-0.8,0.2-1.3,0.5l-25.5,18.2l-0.2-10.7c6.8-4.6,15.6-10.7,19.4-12.7
			c-3.9-2.1-12.8-7.9-19.8-12.2l-0.2-9.8l26.5,17.5c0.4,0.2,0.6,0.3,1.1,0.2l15.5-0.3L715.1,545.7z"/>
		<path class="st0" d="M705.6,511.9l10,5.8l-1.4,9.2l-39.6-23.7l1.7-11.2l45-11.9l-1.4,9.6l-11.3,2.9L705.6,511.9z M700.9,494
			c-11,2.8-16.4,4.1-19.7,4.6l0,0.1c2.9,1.4,9.2,4.8,17.5,9.7L700.9,494z"/>
		<path class="st0" d="M715.2,465.1l8.7,7.6l-3.1,8.7l-34.5-30.7l3.8-10.7l46.4-3.3l-3.2,9.2l-11.6,0.7L715.2,465.1z M713.9,446.7
			c-11.3,0.7-16.9,1-20.2,0.9l0,0.1c2.6,1.9,8.2,6.5,15.4,12.8L713.9,446.7z"/>
		<path class="st0" d="M730.4,422.3c4.2,0.9,8.2-0.5,12-7c3.6-6.3,2.6-9.5-0.1-11.1c-2.9-1.7-5.6-0.8-11.9,6.7
			c-9.2,11.1-14.5,11.3-19.5,8.4c-7.1-4.1-7-13.1-2.1-21.6c7.2-12.5,15.5-12.1,19.9-10.1l-4.5,7.8c-2.4-0.6-5.9-0.8-9.7,5.9
			c-2.6,4.6-2.6,8.1,0.2,9.7c2.4,1.4,4.6,0.6,10.2-6c10.4-12.5,15.9-12.2,21.2-9.2c6.3,3.6,8.6,11.5,1.7,23.5
			c-6.4,11.2-14.4,13.5-21.8,10.8L730.4,422.3z"/>
		<path class="st0" d="M745.5,348.2l32.3,28l-5.9,6.8l-32.3-28L745.5,348.2z"/>
		<path class="st0" d="M784.4,368.1l-28-32.3l8-7c19.4,5.3,31.9,7.9,37.1,9.9l0.1-0.1c-3.5-3.4-8.4-9.2-13-14.4l-8.1-9.3l6.2-5.4
			l28,32.3l-7.6,6.6c-8.2-2.2-33.6-9.1-38.9-11l-0.1,0.1c3.8,3.8,7.7,8.4,12.7,14.1l9.7,11.2L784.4,368.1z"/>
		<path class="st0" d="M820.7,322.9c3.2,2.9,7.4,3.7,13.9-0.1c6.2-3.6,7-6.9,5.5-9.6c-1.7-2.9-4.5-3.5-13.6-0.1
			c-13.5,5-18.2,2.5-21.1-2.5c-4.1-7.1,0.5-14.8,9-19.7c12.5-7.2,19.5-2.7,22.3,1.2l-7.8,4.5c-1.8-1.7-4.7-3.7-11.3,0.2
			c-4.6,2.7-6.3,5.7-4.7,8.5c1.4,2.4,3.7,2.9,11.9-0.1c15.2-5.6,19.8-2.7,22.9,2.6c3.6,6.2,1.7,14.2-10.3,21.2
			c-11.2,6.5-19.3,4.5-24.3-1.5L820.7,322.9z"/>
		<path class="st0" d="M857.6,278.8l-14.5,5.4l-2.5-6.8l37.3-13.9l2.5,6.8l-14.4,5.4l12.4,33.2l-8.4,3.1L857.6,278.8z"/>
		<path class="st0" d="M896.4,259.3l10.1,41.5l-8.7,2.1l-10.1-41.5L896.4,259.3z"/>
		<path class="st0" d="M922.9,261.9l-15.3,1.8l-0.8-7.2l39.6-4.6l0.8,7.2l-15.3,1.8l4.1,35.2l-8.9,1L922.9,261.9z"/>
		<path class="st0" d="M967.8,252.2l-1.5,24.2c-0.6,9.8,4.6,12.6,10.2,13c6.3,0.4,10.5-2.2,11.1-11.6l1.5-24.2l9,0.6l-1.5,24.4
			c-0.8,13.2-8.5,18.7-20.8,18c-12-0.8-19.3-6.9-18.5-20.1l1.6-24.7L967.8,252.2z"/>
		<path class="st0" d="M1021.5,266.3l-15-3.6l1.7-7l38.7,9.3l-1.7,7l-15-3.6l-8.3,34.5l-8.7-2.1L1021.5,266.3z"/>
		<path class="st0" d="M1078.1,303.6l-22.5-9.5l-4.4,10.5l25,10.5l-3.8,6.3l-32.3-13.6l16.6-39.4l32,13.5l-2.8,6.7l-23.7-10
			l-3.7,8.8l22.5,9.5L1078.1,303.6z"/>
		<path class="st0" d="M1140.2,342.3c-7.3,9.5-20,12.9-32,3.7c-11.3-8.7-11.9-21.6-4.3-31.5c7.2-9.4,20.4-12.2,31.7-3.6
			C1147.1,319.7,1147.3,333,1140.2,342.3z M1111.4,320.2c-5.1,6.7-5.7,15,1.4,20.5c7.3,5.6,15,2.1,19.7-4c4.9-6.3,5.8-14.6-1.6-20.3
			C1124,311,1116.2,314,1111.4,320.2z"/>
		<path class="st0" d="M1163.5,336.1l23,25.5l-5.4,4.8l-17-18.8l-8.2,7.4l15.8,17.6l-5.4,4.9l-15.8-17.6l-12.7,11.5l-6-6.7
			L1163.5,336.1z"/>
		<path class="st0" d="M1200,429.4l-11.7-21.5l-10,5.4l12.9,23.8l-6.9,2.5l-16.7-30.7l37.5-20.4l16.6,30.5l-6.4,3.5l-12.3-22.6
			l-8.4,4.6l11.7,21.5L1200,429.4z"/>
		<path class="st0" d="M1196.4,474.6l11.4-16.2l0-0.1l-18.7-6l-3.1-9.6l26,9l14.8-21.8l3.3,10.1l-10.6,15l0,0.1l17.4,5.9l3.1,9.3
			l-24.5-9l-15.8,23.2L1196.4,474.6z"/>
		<path class="st0" d="M1218.7,525.1c-7.7-1.1-15.1-5.8-16.9-18.7c-2.1-14.8,7.1-23.6,18.8-25.3c11.7-1.7,23.3,5,25.3,19.5
			c1.8,12.7-4.3,19.9-11.1,22.3l-1.3-9c2.9-1.6,6.5-4.8,5.4-12.4c-1.2-8.5-8.3-12.3-16.6-11.1c-8.4,1.2-14.7,6.6-13.5,15.4
			c0.9,6.6,4,9.1,8.6,10.3L1218.7,525.1z"/>
		<path class="st0" d="M1222.7,568.2l1-24.4l-11.4-0.5l-1.1,27.1l-7.2-1.4l1.4-35l42.7,1.8l-1.4,34.7l-7.3-0.3l1.1-25.7l-9.6-0.4
			l-1,24.4L1222.7,568.2z"/>
		<path class="st0" d="M1244.6,584.8l-1.8,8.8l-34.7-7.2l-5,24l-6.9-2.7l6.6-31.6L1244.6,584.8z"/>
		<path class="st0" d="M1234.2,628.4l-3.2,8.4l-33.1-12.6l-8.7,22.9l-6.4-3.7l11.4-30.2L1234.2,628.4z"/>
		<path class="st0" d="M1179.6,686.9l12.2-21.1l-9.8-5.7l-13.6,23.4l-5.8-4.6l17.5-30.3l37,21.4l-17.4,30l-6.3-3.6l12.9-22.3
			l-8.3-4.8l-12.2,21.1L1179.6,686.9z"/>
		<path class="st0" d="M1158.6,684.8l32.3,27.9l-7,8.1c-20-2.4-32.7-3.3-38.1-4.5l-0.1,0.1c3.9,2.9,9.6,7.9,14.9,12.4l9.3,8.1
			l-5.4,6.2l-32.3-27.9l6.5-7.6c8.5,1,34.6,4.2,40.1,5.3l0.1-0.1c-4.3-3.2-8.9-7.2-14.6-12.2l-11.2-9.7L1158.6,684.8z"/>
		<path class="st0" d="M1101.4,757.2c-2.9-7.2-2.5-16,7.8-24c11.8-9.2,24-5.6,31.3,3.8c7.3,9.4,7.2,22.7-4.3,31.7
			c-10.1,7.9-19.5,6.2-24.9,1.4l7.2-5.6c2.8,1.7,7.4,3.2,13.4-1.5c6.8-5.3,6.5-13.3,1.3-20c-5.2-6.7-13.1-9.5-20.1-4
			c-5.3,4.1-5.9,8-4.7,12.6L1101.4,757.2z"/>
		<path class="st0" d="M1066.1,782l21.7-11.3l-5.2-10.1l-24,12.5l-2.4-6.9l31-16.1l19.7,37.9l-30.8,16l-3.4-6.5l22.8-11.9l-4.4-8.5
			l-21.7,11.3L1066.1,782z"/>
	</g>
	<path class="st0" d="M1018.4,564V376.4c-11.3-4-23.1-6.9-35.3-8.5v172.2L1018.4,564z"/>
	<path class="st0" d="M1069.6,540.1V405.3c-10.8-8.8-22.6-16.3-35.3-22.3v181L1069.6,540.1z"/>
	<path class="st0" d="M883.8,383.9c-12.7,6.2-24.5,13.9-35.3,22.9v266.2v153.3c11.5,4.5,23.2,8.3,35.3,11.4V696.1V383.9z"/>
	<path class="st0" d="M935,368.2c-12.2,1.8-24,4.8-35.3,8.9v325.8v138.5c11.5,2.3,23.3,3.9,35.3,4.8V711.8V368.2z"/>
	<g>
		<path class="st0" d="M1026.4,668.6c-25.5,0-46.2-20.7-46.2-46.2c0-25.5,20.7-46.2,46.2-46.2c25.5,0,46.2,20.7,46.2,46.2
			C1072.6,647.9,1051.8,668.6,1026.4,668.6z M1026.4,580.6c-23.1,0-41.9,18.8-41.9,41.9c0,23.1,18.8,41.9,41.9,41.9
			s41.9-18.8,41.9-41.9C1068.2,599.3,1049.4,580.6,1026.4,580.6z"/>
	</g>
	<g>
		<polygon class="st0" points="1044.6,645.7 1026.4,632.5 1008.1,645.7 1015.1,624.3 996.8,611 1019.4,611 1026.4,589.5 1033.3,611 
			1055.9,611 1037.6,624.3 		"/>
	</g>
</g>
</svg>
