<?xml version="1.0" encoding="utf-8"?>
<!-- Generator: Adobe Illustrator 25.4.1, SVG Export Plug-In . SVG Version: 6.00 Build 0)  -->
<svg version="1.1" id="Layer_1" xmlns="http://www.w3.org/2000/svg" xmlns:xlink="http://www.w3.org/1999/xlink" x="0px" y="0px"
	 viewBox="0 0 1920 1080" style="enable-background:new 0 0 1920 1080;" xml:space="preserve">
<style type="text/css">
	.st0{fill:#E8444F;}
	.st1{fill:#FAAF40;}
	.st2{fill:#FFFFFF;}
	.st3{fill:#711B25;}
</style>
<g>
	<g>
		<path class="st0" d="M1523.9,466.4h-63.4c-16.8,0-15.8-23.3,0-23.3h85.3c10.8,0,19.6-8.8,19.6-19.6v-24.6h-104.9
			c-41.2,0-62.4,23.1-62.4,55.3c0,36.3,21.1,59.3,52.9,59.3h59.3c15.9,0,14.7,22.7,0,22.7h-97l-73.6-127.3c-3.6-6.2-10.2-10-17.3-10
			h-36.9l-75.1,129.8L1141,408.8c-3.6-6.2-10.2-10-17.3-10h-36.9l-75.1,129.8V581h29.3l24-41.3h46h46l18.3,31.6
			c3.5,6.1,10,9.8,17,9.8h47.4l24-41.3h91.9l18.3,31.6c3.5,6.1,10,9.8,17,9.8h123.2c41.2,0,62.6-22.4,62.6-58.7
			C1576.8,486,1553.2,466.4,1523.9,466.4z M1086.7,502.4l24.3-41.9l24.3,41.9H1086.7z M1285.3,502.4l24.3-41.9l24.3,41.9H1285.3z"/>
		<g>
			<g>
				<polygon class="st0" points="960,609 960,609 960,609 				"/>
				<polygon class="st0" points="955.9,526.4 1029.3,398.8 1002.3,398.8 927.5,527.5 927.5,581.3 955.9,605.5 				"/>
				<polygon class="st0" points="1038.7,398.8 964.1,528.6 964.1,605.5 992.5,581.3 992.5,527.5 1067.3,398.8 				"/>
			</g>
			<g>
				<polygon class="st0" points="936.8,480.6 949.5,458.5 917.7,398.8 890.1,398.8 				"/>
				<polygon class="st0" points="880.6,398.8 852.7,398.8 918.2,512.9 932.1,488.8 				"/>
			</g>
		</g>
		<path class="st0" d="M833.2,398.8h-36.9c-7.1,0-13.7,3.8-17.3,10l-85,146.9l-27.5-40.6c20.5-9.5,37.4-27.6,37.4-55.1
			c0-39.1-28.7-61.2-69.9-61.2H520.2v54.8c-4.5-36.2-31.8-54.8-69.4-54.8H343.2V581H379c10.8,0,19.6-8.8,19.6-19.6v-34.4h52.2
			c29.2,0,64-16.2,69.4-52.6V581H556c10.8,0,19.6-8.8,19.6-19.6v-38.1h36.3l39.5,57.7h76.3c7,0,13.5-3.7,17-9.8l18.3-31.6h91.9
			l24,41.3h29.3v-52.4L833.2,398.8z M452.5,479.9h-53.9V443h53.9c10.2,0,18.7,7.7,18.7,19.8C471.2,475,462.1,479.9,452.5,479.9z
			 M575.6,443h55.6c10,0,17,7.1,17,17.3c0,10.2-7.2,15.9-17,15.9h-55.6V443z M784.6,502.4l24.3-41.9l24.3,41.9H784.6z"/>
	</g>
	<g>
		<g>
			<circle class="st1" cx="960" cy="648.7" r="32.5"/>
		</g>
		<polygon class="st2" points="960,621.1 966,639.5 985.4,639.5 969.7,650.9 975.7,669.3 960,657.9 944.3,669.3 950.3,650.9 
			934.6,639.5 954,639.5 		"/>
	</g>
	<g>
		<g>
			<path class="st3" d="M1051,653h-21.6v8.8h24l-1.1,7.5H1020v-38.7h32.1v7.5h-22.8v7.3h21.6V653z"/>
			<path class="st3" d="M1089,669.3l-9.9-13.5h-0.1l-9.6,13.5H1059l14.9-19.8l-14.5-18.9h11.1l9.2,12.5l0.1,0l9.2-12.5h10.1
				l-14.5,18.5l15.3,20.2H1089z"/>
			<path class="st3" d="M1141.5,657c-1.8,6.8-7.2,13.1-19.3,13.1c-13.8,0-20.5-9.6-20.5-20.1c0-10.6,7.4-20.2,21-20.2
				c11.9,0,17.8,6.6,18.9,13.1h-9.5c-0.8-2.2-2.9-5.8-9.5-5.8c-7.2,0-11,5.5-11,12.6c0,7.1,3.4,13.2,11.1,13.2
				c5.5,0,7.9-2.1,9.4-5.9H1141.5z"/>
			<path class="st3" d="M1180.9,653h-21.6v8.8h24l-1.1,7.5h-32.3v-38.7h32.1v7.5h-22.8v7.3h21.6V653z"/>
			<path class="st3" d="M1192.5,630.6h9.4v31.2h21.7l-1.2,7.5h-29.8V630.6z"/>
			<path class="st3" d="M1230.5,630.6h9.4v31.2h21.7l-1.2,7.5h-29.8V630.6z"/>
			<path class="st3" d="M1299.5,653h-21.6v8.8h24l-1.1,7.5h-32.3v-38.7h32.1v7.5h-22.8v7.3h21.6V653z"/>
			<path class="st3" d="M1311,669.3v-38.7h11.1c10.9,16.6,15.2,22.6,17.6,27.2h0.1c-0.4-4.1-0.3-11.3-0.3-17.7v-9.6h8.6v38.7h-10.4
				c-3.6-5.8-16-25-18.3-29.4h-0.1c0.3,4.8,0.3,10.3,0.3,17.1v12.3H1311z"/>
			<path class="st3" d="M1396.8,657c-1.8,6.8-7.2,13.1-19.3,13.1c-13.8,0-20.5-9.6-20.5-20.1c0-10.6,7.4-20.2,21-20.2
				c11.9,0,17.8,6.6,18.9,13.1h-9.5c-0.8-2.2-2.9-5.8-9.5-5.8c-7.2,0-11,5.5-11,12.6c0,7.1,3.4,13.2,11.1,13.2
				c5.5,0,7.9-2.1,9.4-5.9H1396.8z"/>
			<path class="st3" d="M1436.3,653h-21.6v8.8h24l-1.1,7.5h-32.3v-38.7h32.1v7.5h-22.8v7.3h21.6V653z"/>
		</g>
		<g>
			<path class="st3" d="M477.5,630.6v38.7h-9.4v-38.7H477.5z"/>
			<path class="st3" d="M490.3,669.3v-38.7h11.1c10.9,16.6,15.2,22.6,17.6,27.2h0.1c-0.4-4.1-0.3-11.3-0.3-17.7v-9.6h8.6v38.7H517
				c-3.6-5.8-16-25-18.3-29.4h-0.1c0.3,4.8,0.3,10.3,0.3,17.1v12.3H490.3z"/>
			<path class="st3" d="M545.3,657.7c1.1,3.3,3.8,5.5,10.2,5.5c6,0,7.8-1.8,7.8-4.3c0-2.7-1.8-4.2-9.9-5.6
				c-13.4-2.3-15.9-6.7-15.9-11.8c0-7.7,7.4-11.7,16.6-11.7c13.3,0,16.9,6.8,17.3,11.3h-9.4c-0.5-1.9-1.8-4.5-8.2-4.5
				c-4.5,0-6.7,1.4-6.7,3.9c0,2.2,1.6,3.4,8.9,4.7c14.7,2.6,17,7.1,17,12.7c0,6.7-5.3,12.1-18.2,12.1c-12.1,0-17.6-5.4-18.7-12.4
				H545.3z"/>
			<path class="st3" d="M591.8,638.1h-13.6v-7.5h36.6v7.5h-13.6v31.2h-9.4V638.1z"/>
			<path class="st3" d="M631.9,630.6v38.7h-9.4v-38.7H631.9z"/>
			<path class="st3" d="M653.5,638.1h-13.6v-7.5h36.6v7.5h-13.6v31.2h-9.4V638.1z"/>
			<path class="st3" d="M693.9,630.6v21.9c0,8.2,4.3,10.3,9.1,10.3c5.1,0,8.4-2.2,8.4-10.3v-21.9h9.4v22.2
				c0,11.7-6.6,17.3-18.1,17.3c-11.1,0-18.2-5.1-18.2-17.1v-22.4H693.9z"/>
			<path class="st3" d="M742.1,638.1h-13.6v-7.5H765v7.5h-13.6v31.2h-9.4V638.1z"/>
			<path class="st3" d="M803.7,653h-21.6v8.8h24l-1.1,7.5h-32.3v-38.7h32.1v7.5h-22.8v7.3h21.6V653z"/>
		</g>
		<g>
			<g>
				<path class="st3" d="M871.6,650c0,10.5-5.9,19.9-17.9,19.9c-11.2,0-17.5-8.7-17.5-19.7c0-10.9,6.4-19.7,18-19.7
					C864.9,630.5,871.6,638.6,871.6,650z M841.5,650c0,8.3,4.2,15.5,12.4,15.5c8.9,0,12.4-7.3,12.4-15.5c0-8.2-4-15.2-12.4-15.2
					C845.3,634.8,841.5,641.9,841.5,650z"/>
				<path class="st3" d="M881.8,631.1h24.6v4.3h-19.6v12.4h18.3v4.3h-18.3v17.1h-5V631.1z"/>
			</g>
		</g>
	</g>
</g>
</svg>
